<?xml version="1.0" encoding="utf-8"?>
<!-- Generator: Adobe Illustrator 24.0.2, SVG Export Plug-In . SVG Version: 6.00 Build 0)  -->
<svg version="1.1" id="Layer_1" xmlns="http://www.w3.org/2000/svg" xmlns:xlink="http://www.w3.org/1999/xlink" x="0px" y="0px"
	 viewBox="0 0 624.7 856.3" style="enable-background:new 0 0 624.7 856.3;" xml:space="preserve">
<style type="text/css">
	.st0{fill:#FFFFFF;}
</style>
<title>logo-el-faro</title>
<path d="M394,354.5c0,0.1,0,0.2,0,0.3l0,0V354.5z"/>
<path d="M210.9,491.7L311.3,554h0.3l100.1-62.1c0,0-10.2-79.3-17.6-137L311.6,406h-0.3l-82.7-51.3 M329.4,497.5h-28.7v-28.2
	c0-7.2,6.4-13,14.3-13s14.3,5.8,14.3,13V497.5z"/>
<path d="M312.6,735.6L434.4,660c-6.4-50-8.8-68.6-17.6-137l-104.1,64.6h-0.3L208,522.8l-17.6,137l122,75.7L312.6,735.6z"/>
<path d="M400.4,198.7h-22.2l-6.7-76.5h7v-17.1h24.2l-72.3-50.5c-2.1-1.5-4.4-2.6-6.8-3.5c0.1-0.7,0.2-1.3,0.2-2V10.4
	c0-5.8-5.1-10.4-11.5-10.4s-11.5,4.7-11.5,10.4v38.7c0,0.7,0.1,1.3,0.2,2c-2.4,0.9-4.7,2.1-6.8,3.5L222,105.2h24.2v17.1h7l-6.6,76.5
	h-22.2c-12.9,0-23.4,8-23.4,17.9l0,0c0,9.9,10.5,17.9,23.4,17.9h20.7l-11.5,89.1l78.7,48.9h0.3l78.4-48.7
	c-2.8-21.8-9-69.9-11.5-89.3h20.8c12.9,0,23.4-8,23.4-17.9l0,0C423.8,206.7,413.3,198.7,400.4,198.7z M275.3,132.6h74.1l5.8,66.1
	h-28.5v-23.9c0-7.2-6.4-13-14.3-13s-14.3,5.8-14.3,13v23.9h-28.5L275.3,132.6z"/>
<path class="st0" d="M438.9,118l102.6-4.2l-101.7,12.6c-2.4,0.4-4.7-1.2-5.2-3.6c-0.2-2.4,1.5-4.5,3.8-4.7c0.1,0,0.1,0,0.2,0
	L438.9,118z"/>
<path class="st0" d="M439.3,149.1l185.4,4.2l-185.4,4.2c-2.4,0.2-4.6-1.7-4.7-4.1c0-2.4,2.1-4.4,4.5-4.3c0,0,0,0,0,0H439.3z"/>
<path class="st0" d="M439.7,180.2L541.5,192l-102.5-3.4c-2.4,0-4.4-1.9-4.5-4.3c0,0,0,0,0,0c0.2-2.4,2.4-4.2,4.8-4.1
	C439.4,180.2,439.5,180.2,439.7,180.2z"/>
<path class="st0" d="M185,126.4L83.3,113.8l102.6,4.2c2.4,0,4.4,1.9,4.4,4.4c0,0,0,0,0,0c-0.3,2.4-2.4,4.2-4.8,4H185z"/>
<path class="st0" d="M185.4,157.5L0,153.3l185.4-4.2c2.4-0.2,4.5,1.7,4.7,4.1c-0.1,2.4-2.1,4.4-4.5,4.3c0,0,0,0,0,0H185.4z"/>
<path class="st0" d="M185.8,188.6l-102.6,4.2L185,180.2c2.4-0.4,4.7,1.2,5.2,3.6c0.2,2.4-1.5,4.5-3.8,4.7c-0.1,0-0.1,0-0.2,0
	L185.8,188.6z"/>
<path d="M215,792.1h0.5c12.1,0,24.6,0,36.3-0.8c5.1-0.4,10.1-1.2,15.3-2s10.8-1.7,16.6-2.2c10-1.5,19.9-3.9,29.5-7.1l0.5-0.2
	c18.5-5.1,36.1-9.8,52.8-17.8c16.4-8.3,33.4-16.8,50.1-24.5c8.5-4.1,17.3-7.5,26.4-10.4c-2.5-19.2-4.6-36-4.6-36l-125.8,78h-0.3
	l-126-78.2l-12.8,99.7C187.3,792.3,201.1,792.8,215,792.1z"/>
<path d="M470.5,737.1l0.7-0.2c9.7-3.2,19.7-5.6,29.8-7.2h0.2c30.2-5.1,60.9-6.7,91.5-5c5.1,0.3,9.5-3.2,9.8-7.8s-3.5-8.6-8.6-8.9
	c-32.1-1.8-64.3-0.1-96,5.3c-11.1,1.7-22,4.3-32.6,7.8c-7.2,1.8-14.6,3.8-22.2,6.2c0.8,5.8,1.5,11.5,2.2,17.1
	C452.9,741.8,461,739.5,470.5,737.1z"/>
<path d="M173.5,790.7c-2.7-0.3-5.5-0.7-8.3-1c-23.5-3.6-43.1-6.8-62.7-12.9c-2.1-0.9-4.1-1.6-5.9-2.2s-3.3-1.1-4.7-1.8l-0.7-0.3
	l-0.7-0.2c-9.1-2.5-17.6-5.6-26.7-8.8c-2.1-0.8-4.3-1.5-6.5-2.3c-0.5-0.3-1-0.6-1.4-0.9l-0.6-0.4l-0.9-0.8l-1.3-0.6
	c-2.3-1.1-4.7-2-7-2.8c-3.3-1.1-6.5-2.5-9.5-4.2c-4.3-2.6-9.8-1.6-12.8,2.3c-2.6,3.5-1.8,8.5,1.7,11.1c0.3,0.2,0.6,0.4,0.9,0.6
	c4.1,2.3,8.3,4.2,12.7,5.8c1.7,0.7,3.4,1.3,4.9,1.9c0.6,0.5,1.3,0.8,1.8,1.2l0.6,0.4l1.2,1.1l1.8,0.6l7.8,2.7
	c9.2,3.3,17.9,6.3,27.3,9c2,0.9,4,1.5,5.7,2.1s3.3,1.1,4.7,1.8l0.5,0.3l0.6,0.2c21.2,6.7,41.7,10.1,66.3,13.8
	c13.3,1.9,26.7,2.9,40.1,2.9c4.4,0,8.9-0.1,13.4-0.3c11.8,0,25.2,0,37.5-0.9c6-0.5,11.6-1.3,17-2.2c5.3-0.8,10.2-1.6,15.4-2l0.8-0.1
	c9.8-1.5,19.4-3.7,28.9-6.6H172.7L173.5,790.7z"/>
<path d="M375.2,776.8l0.2-0.1c16.3-8.2,33.1-16.7,49.6-24.2l0.2-0.1c6.5-3.1,13.2-5.8,20.1-8.1c-0.7-5.6-1.5-11.3-2.2-17.1
	c-9,2.8-17.9,6.3-26.4,10.3c-16.8,7.6-33.7,16.2-50.1,24.5c-16.8,8-34.3,12.8-52.8,17.8l-0.5,0.2c-9.6,3.2-19.5,5.6-29.5,7.1
	c-5.8,0.5-11.3,1.3-16.6,2.2s-10.2,1.6-15.3,2c-11.7,0.8-24.2,0.8-36.3,0.8H215c-13.9,0.7-27.8,0.2-41.5-1.4l-0.8,6.4h142.6
	c1.3-0.4,2.6-0.8,4-1.3C337.8,790.8,356.9,785.5,375.2,776.8z"/>
<path d="M470.5,784.2l0.7-0.2c9.7-3.2,19.7-5.6,29.8-7.2h0.1c30.2-5.1,60.9-6.7,91.5-5c5.1,0.3,9.5-3.2,9.8-7.9s-3.5-8.6-8.7-8.9
	c-32.1-1.8-64.2,0-95.9,5.3c-11.1,1.7-22,4.3-32.7,7.8c-5.3,1.3-10.8,2.8-16.4,4.4c0.9,6.9,1.6,12.8,2.2,17
	C457,787.7,463.4,786,470.5,784.2z"/>
<path d="M366.5,809c-16.8,8-34.3,12.8-52.8,17.8l-0.5,0.2c-9.6,3.2-19.5,5.6-29.5,7.1c-5.8,0.5-11.3,1.3-16.6,2.2s-10.2,1.6-15.3,2
	c-11.7,0.8-24.2,0.8-36.3,0.8h-0.5c-16.6,0.8-33.3,0-49.8-2.4c-23.5-3.6-43.1-6.8-62.7-12.9c-2.1-0.9-4.1-1.6-5.9-2.2
	c-1.6-0.5-3.2-1.1-4.7-1.7l-0.7-0.3l-0.7-0.2c-9-2.5-17.6-5.6-26.7-8.8l-6.5-2.3c-0.5-0.3-1-0.6-1.4-0.9c-0.2-0.1-0.4-0.3-0.6-0.4
	l-0.9-0.8l-1.3-0.6c-2.3-1.1-4.7-2-7-2.8c-3.3-1.1-6.5-2.5-9.5-4.2c-4.3-2.6-9.8-1.6-12.8,2.3c-2.6,3.5-1.8,8.5,1.7,11.1
	c0.3,0.2,0.6,0.4,0.9,0.6c4.1,2.3,8.3,4.2,12.7,5.8c1.7,0.7,3.4,1.3,4.9,1.9c0.6,0.5,1.3,0.8,1.8,1.2l0.6,0.4l1.2,1.1l1.8,0.6
	c2.6,0.9,5.2,1.8,7.8,2.7c9.2,3.3,17.8,6.3,27.3,9c2,0.9,4,1.5,5.7,2.1s3.3,1.1,4.7,1.8l0.5,0.2l0.6,0.2
	c21.2,6.7,41.7,10.1,66.3,13.8c13.3,2,26.7,3,40.1,3c4.4,0,8.9-0.1,13.4-0.3c11.8,0,25.2,0,37.5-0.9c6-0.5,11.6-1.3,17-2.2
	c5.3-0.8,10.2-1.6,15.4-2l0.8-0.1c11.1-1.7,22.1-4.3,32.8-7.9c18.5-5.1,37.7-10.3,56-19l0.2-0.1c16.3-8.2,33.1-16.7,49.6-24.2
	l0.2-0.1c1.7-0.8,3.5-1.6,5.2-2.4h-40C382.4,801.1,374.4,805.1,366.5,809z"/>
<path d="M390.4,797.1h40c6.7-2.9,13.6-5.5,20.7-7.6c-0.5-4.3-1.3-10.1-2.2-17c-11.1,3.1-21.8,7.2-32.2,12.1
	C407.9,788.6,399.1,792.8,390.4,797.1z"/>
</svg>
